<svg xmlns="http://www.w3.org/2000/svg" viewBox="0 0 453.29 106.65"><g id="レイヤー_2" data-name="レイヤー 2"><g id="レイヤー_1-2" data-name="レイヤー 1"><path d="M3.87,17.72a81.57,81.57,0,0,1,8-7.38,64,64,0,0,1,9.36-6.42A33.7,33.7,0,0,1,30.33.32q4.38-1,7.14,1A8.34,8.34,0,0,1,40.89,8.6a32.71,32.71,0,0,1-2.4,11,105.85,105.85,0,0,1-6.18,13.2q-3.84,7-7.8,13.8T17.13,59.36a62.37,62.37,0,0,0-4.86,10.2Q16.83,63.44,22.71,56T35,41.18q6.36-7.38,12.72-14.1A161.35,161.35,0,0,1,59.55,15.62a50.05,50.05,0,0,1,9.72-6.84q4.2-2.1,6.24-.3,1.8,1.44,1.14,6.12a72.78,72.78,0,0,1-2.52,10.8q-1.86,6.12-4.56,12.84t-5,12.36q4.32-6.12,10-12.72T86.37,25.34A151.13,151.13,0,0,1,98.43,14.66a59.68,59.68,0,0,1,11-7.14q5.76-2.88,8.76-2.7a4.48,4.48,0,0,1,4.08,2.28,9.8,9.8,0,0,1,.72,5.52,39,39,0,0,1-1.38,6.9q-1,3.48-2.22,6.54t-1.8,4.5q-.72,1.68-2.58,5.4t-4.32,8.76q-2.46,5-5.4,11T99.51,67.76q-2.88,6.12-5.46,11.94T89.61,90.32a71,71,0,0,0-2.7,8.16q-.84,3.36-.24,4.44.72,1.32,3.06.66A25.53,25.53,0,0,0,95.37,101q3.3-1.92,7.26-4.74t7.86-5.88q3.9-3.06,7.5-6l6.24-5.1q-1.92,1.68-5.64,5t-8.16,7Q106,95,101.25,98.48a61.43,61.43,0,0,1-8.7,5.46A14.1,14.1,0,0,1,86,105.8q-2.64-.12-3-3.6-.24-2.52,1.44-8T88.83,81.5q2.76-7.14,6.24-15.06t6.78-15.3q3.3-7.38,5.94-13.32t4-9.18q.12-.36,1-2.1t1.8-4.08q1-2.34,1.8-4.92a28.58,28.58,0,0,0,1.14-4.62,5,5,0,0,0-.3-3.12q-.6-1.08-2.52-.48a31.15,31.15,0,0,0-8.82,4.5,111.84,111.84,0,0,0-10.32,8.1Q90.15,26.6,84.75,32.24t-10,11.22Q70.11,49,66.57,54.14a53,53,0,0,0-5.1,8.7,2.85,2.85,0,0,1-.78-.18,2.62,2.62,0,0,1-1-.66,2.32,2.32,0,0,1-.6-1.38,4.42,4.42,0,0,1,.72-2.46q.72-1.2,1.5-2.64A24.64,24.64,0,0,1,63,52.76l4.2-11.52q2.28-6.24,4-11.82a88.26,88.26,0,0,0,2.52-9.72q.78-4.14-.3-5.46T69.15,15a60.55,60.55,0,0,0-7.92,6.48Q56.55,25.88,50.85,32T39.27,45Q33.39,51.8,27.69,58.7T17.37,71.6Q12.75,77.6,9.51,82a64.25,64.25,0,0,0-4.2,6.24,3.22,3.22,0,0,1-1.26-.36,3.43,3.43,0,0,1-1.32-1.08,3.23,3.23,0,0,1-.6-1.8,4.51,4.51,0,0,1,1-2.64,37.3,37.3,0,0,0,2-3.18A24.4,24.4,0,0,1,8,75.44q1.32-2.76,2.46-5.52t2.46-5.64q2.28-4.92,5.76-11.82t7-14.16Q29.07,31,32,24.26a73.75,73.75,0,0,0,4-11.34q1.32-6-.24-8T30.75,3.68A26.18,26.18,0,0,0,23,7a74.78,74.78,0,0,0-8.52,6,95.93,95.93,0,0,0-7.38,6.6A27.21,27.21,0,0,0,2.79,24.8q-2.4.48-2.7-.36a2.82,2.82,0,0,1,.36-2.16,12.9,12.9,0,0,1,1.8-2.64Q3.39,18.32,3.87,17.72Z"/><path d="M126.39,52.88l-1.74,5q-.78,2.22-1.5,4.38l-1.44,4.32q-.72,2.16-1.44,4.68-.48,1.56.3,1.62a4.16,4.16,0,0,0,2.22-.84q1.44-.9,3.3-2.34t3.66-3q1.8-1.56,3.24-2.76t1.92-1.68q2.4-1.8,4.44-3.6t3.48-3.24L140,58.64q-1.92,2.16-4.32,4.74t-5,5.22q-2.64,2.64-5,4.8a32.15,32.15,0,0,1-4.32,3.36,4.43,4.43,0,0,1-3,1q-2.4-.48-2.4-4a31.42,31.42,0,0,1,1.2-8,75.7,75.7,0,0,1,3-8.94q1.8-4.44,2.88-7,.12-.36.84-.36a3.58,3.58,0,0,1,1.5.36,2.55,2.55,0,0,1,1.2,1.14A2,2,0,0,1,126.39,52.88Zm.24-12.36a10.34,10.34,0,0,1,2.82,2.4,2.51,2.51,0,0,1,.72,1.92q-.18.72-1.38.78a7.46,7.46,0,0,1-3.36-1q-.36-.12-.54-1a4.75,4.75,0,0,1-.06-1.68,2.86,2.86,0,0,1,.54-1.38Q125.79,40,126.63,40.52Z"/><path d="M151.35,54.32a3.89,3.89,0,0,0-3.06-.78,7.62,7.62,0,0,0-3.54,1.2,4.45,4.45,0,0,0-2,2.76q-.42,1.74,1.62,3.78a4.51,4.51,0,0,1,.42.48,4.51,4.51,0,0,0,.42.48q3-.84,5.4-1.38t4.56-1.14q2.16-.6,4.38-1.44A39.4,39.4,0,0,0,164.43,56a49.08,49.08,0,0,1-5.16,3.06Q157,60.2,155,61t-4,1.38q-2,.6-4.14,1.32,1.2,1.08,2.46,2.4a10.58,10.58,0,0,1,2,2.88,7.92,7.92,0,0,1,.72,3.36,7.15,7.15,0,0,1-1.32,3.84A7.53,7.53,0,0,1,145,79.88a11.78,11.78,0,0,1-6.66-1.2,10.47,10.47,0,0,1-4.62-4.5A6.13,6.13,0,0,1,134,68a5.42,5.42,0,0,1,2.4-2.34,31.75,31.75,0,0,1,4.32-2,8.36,8.36,0,0,1-2.1-5.28,7.51,7.51,0,0,1,1.5-4.44,9.55,9.55,0,0,1,3.9-3,11,11,0,0,1,5-1,7.27,7.27,0,0,1,3.48,1,1.93,1.93,0,0,1,1,1.44,1.77,1.77,0,0,1-.66,1.32A2,2,0,0,1,151.35,54.32Zm-8.76,10.92a2.07,2.07,0,0,1-.6.3,1.06,1.06,0,0,0-.48.3q-4,1.92-4.68,3.9a3.34,3.34,0,0,0,.42,3.42,6.28,6.28,0,0,0,3.54,2,7.78,7.78,0,0,0,4.68-.24q1.92-.84,2.1-2.16a4.25,4.25,0,0,0-.6-2.7,11.49,11.49,0,0,0-2.1-2.64Q143.55,66.2,142.59,65.24Z"/><path d="M165,67.88A4.58,4.58,0,0,1,168.39,69a2.21,2.21,0,0,1,.78,2,2.52,2.52,0,0,1-1,1.62,4.28,4.28,0,0,1-2,.78,3.66,3.66,0,0,1-2.46-.54q-.36-.12-.48-1a6.34,6.34,0,0,1,0-1.74,4.31,4.31,0,0,1,.54-1.62A1.15,1.15,0,0,1,165,67.88Z"/><path d="M268.66,69a.47.47,0,0,1,.46.38.4.4,0,0,1-.21.55l-9.82,4.62-.34.08c-.56,0-1.09-.64-1.6-1.93a14.17,14.17,0,0,1-.75-5v-.34a23.78,23.78,0,0,1-6.56,5.42,14.39,14.39,0,0,1-6.8,1.72,8.32,8.32,0,0,1-6.55-2.64q-2.36-2.66-2.35-7.69V51.24a13.89,13.89,0,0,0-.59-4.75A2,2,0,0,0,231.62,45a6.66,6.66,0,0,0-2.86.84h-.08c-.23,0-.4-.15-.51-.46s0-.49.17-.55l9.33-4.2.33-.08a1,1,0,0,1,.55.21.59.59,0,0,1,.29.46V61.32q0,9.74,7.06,9.74a12.2,12.2,0,0,0,5.46-1.38,17.78,17.78,0,0,0,5-3.83V51.24a14.88,14.88,0,0,0-.55-4.79,2,2,0,0,0-2-1.43,6.66,6.66,0,0,0-2.86.84h-.08c-.23,0-.38-.15-.46-.46s0-.49.21-.55l9.32-4.2.25-.08a1,1,0,0,1,.55.21.59.59,0,0,1,.29.46V64.76a9.26,9.26,0,0,0,.67,4.12A2.37,2.37,0,0,0,264,70.14,13.89,13.89,0,0,0,268.49,69Z"/><path d="M274,73.25c0-.34.09-.51.25-.51a9.15,9.15,0,0,0,3.37-.46,2.69,2.69,0,0,0,1.51-1.68A11.91,11.91,0,0,0,279.5,67V23.52a11.8,11.8,0,0,0-.59-4.37,2.11,2.11,0,0,0-2.1-1.34A10.85,10.85,0,0,0,272.94,19h-.16c-.17,0-.3-.14-.38-.42s0-.45.13-.5l10.75-5.13a1,1,0,0,1,.42-.08.92.92,0,0,1,.46.21.59.59,0,0,1,.29.46V67a12.8,12.8,0,0,0,.38,3.61,2.67,2.67,0,0,0,1.47,1.68,8.58,8.58,0,0,0,3.36.5c.17,0,.25.17.25.51s-.08.5-.25.5c-1.23,0-2.24,0-3-.08l-4.71-.09-4.53.09c-.79,0-1.85.08-3.2.08C274,73.75,274,73.58,274,73.25Z"/><path d="M297.3,73.25c0-.34.09-.51.26-.51a9.12,9.12,0,0,0,3.36-.46,2.69,2.69,0,0,0,1.51-1.68,11.91,11.91,0,0,0,.42-3.65V23.52a11.8,11.8,0,0,0-.59-4.37,2.11,2.11,0,0,0-2.1-1.34A10.76,10.76,0,0,0,296.3,19h-.17c-.17,0-.3-.14-.38-.42s0-.45.13-.5l10.75-5.13a1,1,0,0,1,.42-.08.92.92,0,0,1,.46.21.56.56,0,0,1,.29.46V67a12.8,12.8,0,0,0,.38,3.61,2.67,2.67,0,0,0,1.47,1.68,8.58,8.58,0,0,0,3.36.5c.17,0,.25.17.25.51s-.08.5-.25.5c-1.23,0-2.24,0-3-.08l-4.71-.09-4.53.09c-.79,0-1.85.08-3.19.08C297.39,73.75,297.3,73.58,297.3,73.25Z"/><path d="M359.38,73.25c0,.33-.08.5-.25.5-1.29,0-2.3,0-3-.08l-4.53-.09-4.62.09c-.73,0-1.74.08-3,.08-.16,0-.25-.17-.25-.5s.09-.51.25-.51a9.05,9.05,0,0,0,3.36-.46,2.51,2.51,0,0,0,1.47-1.64,12.74,12.74,0,0,0,.38-3.69V53.34c0-3.31-.63-5.74-1.89-7.31s-3.2-2.35-5.84-2.35a11.32,11.32,0,0,0-5.25,1.38,17.36,17.36,0,0,0-4.83,3.83V67a13.11,13.11,0,0,0,.38,3.69,2.51,2.51,0,0,0,1.47,1.64,9.12,9.12,0,0,0,3.36.46c.17,0,.25.17.25.51s-.08.5-.25.5c-1.29,0-2.3,0-3-.08L329,73.58l-4.62.09c-.73,0-1.73.08-3,.08-.17,0-.25-.17-.25-.5s.08-.51.25-.51a9.12,9.12,0,0,0,3.36-.46,2.51,2.51,0,0,0,1.47-1.64,13.11,13.11,0,0,0,.38-3.69V50.31a9.21,9.21,0,0,0-.68-4.11,2.35,2.35,0,0,0-2.26-1.26,14.72,14.72,0,0,0-4.54,1.26h-.17a.47.47,0,0,1-.46-.38.41.41,0,0,1,.21-.55l9.74-4.62.51-.08c.5,0,1,.65,1.59,1.93a12.53,12.53,0,0,1,.84,5A24.23,24.23,0,0,1,337.67,42a13.12,13.12,0,0,1,6.51-1.77q4.69,0,7.22,2.61t2.52,7.64V67a13.11,13.11,0,0,0,.38,3.69,2.51,2.51,0,0,0,1.47,1.64,9.12,9.12,0,0,0,3.36.46C359.3,72.74,359.38,72.91,359.38,73.25Z"/><path d="M392.81,69.05a.56.56,0,0,1,.46.29.46.46,0,0,1,.05.55,18.17,18.17,0,0,1-12.27,4.87,14.43,14.43,0,0,1-13.56-8.23,17.71,17.71,0,0,1-1.81-7.9A18.16,18.16,0,0,1,368,49.52a17.47,17.47,0,0,1,15.37-9q4.71,0,7.23,2.52a9.54,9.54,0,0,1,2.52,7.06,4.81,4.81,0,0,1-.21,1.68.74.74,0,0,1-.72.5l-20.83.08c-.11,1.24-.17,2.24-.17,3q0,7.31,3.45,11.84a11.4,11.4,0,0,0,9.66,4.54,12.33,12.33,0,0,0,4.32-.67,22.75,22.75,0,0,0,4.08-2.1ZM374.67,44.64a12.31,12.31,0,0,0-3.11,6.68l16-.33q0-4.29-1.85-6.51a6.18,6.18,0,0,0-5-2.23A8,8,0,0,0,374.67,44.64Z"/><path d="M409,51.11a28.59,28.59,0,0,0,5.63,3.66,46.76,46.76,0,0,1,4.58,2.6A10.08,10.08,0,0,1,422,60.23a7.48,7.48,0,0,1,1.18,4.28A9.45,9.45,0,0,1,420,71.73c-2.13,2-5,2.94-8.66,2.94a13.78,13.78,0,0,1-8.06-2.52,1.12,1.12,0,0,1-.5-1l-.17-6.56c0-.16.15-.26.46-.29s.49,0,.55.21a15.24,15.24,0,0,0,4.16,6.38,8.82,8.82,0,0,0,5.92,2.19,5.92,5.92,0,0,0,4.2-1.35,4.71,4.71,0,0,0,1.26-3.94,6.59,6.59,0,0,0-2-4.92,24.53,24.53,0,0,0-5.67-3.57,37.69,37.69,0,0,1-4.41-2.43A9.71,9.71,0,0,1,404.36,54a8,8,0,0,1-1.13-4.37,8,8,0,0,1,3.4-6.93,13.62,13.62,0,0,1,8-2.39,14.61,14.61,0,0,1,6.13,1.26,1.11,1.11,0,0,1,.63.38,1,1,0,0,1,.13.54q0,1.68-.09,2.61l-.08,3.52c0,.12-.17.17-.5.17s-.51,0-.51-.17A5,5,0,0,0,419,45.32a9.81,9.81,0,0,0-3.36-2.48,9.55,9.55,0,0,0-4-.93,4.66,4.66,0,0,0-3.32,1.14,4.43,4.43,0,0,0-1.22,3.4A5.91,5.91,0,0,0,409,51.11Z"/><path d="M439.09,51.11a28.59,28.59,0,0,0,5.63,3.66,46.76,46.76,0,0,1,4.58,2.6,10.08,10.08,0,0,1,2.81,2.86,7.48,7.48,0,0,1,1.18,4.28,9.42,9.42,0,0,1-3.19,7.22c-2.13,2-5,2.94-8.65,2.94a13.79,13.79,0,0,1-8.07-2.52,1.12,1.12,0,0,1-.5-1l-.17-6.56c0-.16.15-.26.46-.29s.49,0,.55.21a15.24,15.24,0,0,0,4.16,6.38,8.82,8.82,0,0,0,5.92,2.19,5.89,5.89,0,0,0,4.2-1.35,4.71,4.71,0,0,0,1.26-3.94,6.59,6.59,0,0,0-2-4.92,24.31,24.31,0,0,0-5.67-3.57,38.53,38.53,0,0,1-4.41-2.43A9.71,9.71,0,0,1,434.43,54a8,8,0,0,1-1.13-4.37,8,8,0,0,1,3.4-6.93,13.62,13.62,0,0,1,8-2.39,14.61,14.61,0,0,1,6.13,1.26,1.11,1.11,0,0,1,.63.38,1,1,0,0,1,.13.54c0,1.12,0,2-.08,2.61l-.09,3.52c0,.12-.16.17-.5.17s-.51,0-.51-.17a5,5,0,0,0-1.34-3.31,9.81,9.81,0,0,0-3.36-2.48,9.55,9.55,0,0,0-4-.93,4.66,4.66,0,0,0-3.32,1.14,4.43,4.43,0,0,0-1.22,3.4A5.94,5.94,0,0,0,439.09,51.11Z"/><path d="M160.71,96.73c0,.47,0,.62,0,.92a10.75,10.75,0,0,1-1,4.74c-.36.68-.81,1.13-1.1,1.13s-.54-.61-.54-1.28c0-.3.06-.39.47-.77a5.76,5.76,0,0,0,1.3-2.18,10.38,10.38,0,0,0,.54-2.56Zm2-.14c0-.76,0-1.71-.08-2.49,1.94.29,2.16.35,2.16.54s0,.17-.8.46v9.36c0,.29.11.34.72.38h2.52c1.46,0,1.79-.07,2-.43a26,26,0,0,0,1.1-4.07l.23,0-.23,3.93v0c0,.18.12.29.36.32s.54.24.54.49-.27.52-.81.63A26.29,26.29,0,0,1,167,106c-2.91,0-3.47,0-3.8-.14s-.59-.36-.63-.9c.07-1.8.07-2,.07-2.6Zm.49-5.82a13.39,13.39,0,0,1,4.3,1.62,1.18,1.18,0,0,1,.53.54,2.51,2.51,0,0,1,.14.81c0,.45-.16.82-.36.82s-.23-.09-.5-.4A13.76,13.76,0,0,0,163,91Zm7.67,5.82c2.11,2,3.19,3.6,3.19,4.59a3.37,3.37,0,0,1-.36,1.28c-.18.34-.34.5-.51.5s-.28-.18-.39-.66a17.41,17.41,0,0,0-2.16-5.57Z"/><path d="M180.71,91.1a5.83,5.83,0,0,1,1.82.34c.36.14.5.32.5.58v0c0,.15,0,.15-.14.47a14,14,0,0,0-.4,3.66c0,1.06.15,1.33.71,1.33a6.89,6.89,0,0,0,2.41-.92,1.59,1.59,0,0,1,.74-.22.88.88,0,0,1,.86.76.57.57,0,0,1-.38.54c-.12,0-.38.14-1.2.38a12.25,12.25,0,0,0-4.5,2,2.89,2.89,0,0,0-1.41,2.31c0,1.3,1,2,3,2a20.65,20.65,0,0,0,4.17-.52,1.44,1.44,0,0,1,.36,0,1,1,0,0,1,1,.88c0,.32-.2.48-.78.59a27.49,27.49,0,0,1-3.46.24,9.22,9.22,0,0,1-3.06-.42,2.85,2.85,0,0,1-2-2.66,4,4,0,0,1,1.76-3,12.11,12.11,0,0,1,2.2-1.44,1.19,1.19,0,0,1-.86-.27c-.27-.2-.43-.59-.52-1.37-.06-.43-.08-.82-.13-2.18,0-1.53-.07-1.8-.22-2.07s-.54-.52-1.29-.64A.93.93,0,0,1,180.71,91.1Z"/><path d="M193.27,95.22a3,3,0,0,0,2.15.92,7.89,7.89,0,0,0,1.8-.23c0-.53,0-1.34,0-1.66,0-1.89-.22-2.27-1.46-2.49a1,1,0,0,1,.77-.25,4.25,4.25,0,0,1,1.86.45.75.75,0,0,1,.39.58c0,.11,0,.11-.2.47a7,7,0,0,0-.55,2.68,5.1,5.1,0,0,0,2-1,.88.88,0,0,1,.43-.17,2.14,2.14,0,0,1,.68.16.46.46,0,0,1,.31.39c0,.25-.16.4-.81.7a12.7,12.7,0,0,1-2.63.89c0,.25,0,.25-.05.9,0,.48-.06,1.28-.07,2.36a13.3,13.3,0,0,1,4.77-1c2.46,0,4,1.17,4,3.08a3.07,3.07,0,0,1-3.08,3.13c-1.65,0-2.84-1.1-3.47-3.19l.27-.09a5.28,5.28,0,0,0,1.08,1.57,2.39,2.39,0,0,0,1.71.68,2.27,2.27,0,0,0,2.25-2.46c0-1.39-.94-2.15-2.67-2.15a11.53,11.53,0,0,0-4.87,1.3c0,1.91,0,1.91,0,2.45,0,.34,0,.54,0,.68a2.11,2.11,0,0,1-.23,1.06,1.1,1.1,0,0,1-.87.67c-.25,0-.25,0-1.35-1a7.23,7.23,0,0,0-1.2-.81.86.86,0,0,1-.6-.76,1.56,1.56,0,0,1,.54-1,9,9,0,0,1,2.87-1.85c0-.25,0-.52,0-.87,0-.81,0-.81.09-2.59a8.46,8.46,0,0,1-1.4.13,3,3,0,0,1-2.69-1.48Zm2,7.29q-.54.57-.54.87c0,.18.24.38.72.56a3.85,3.85,0,0,0,1.12.28c.22,0,.31-.12.33-.45.08-1.62.12-2.5.12-2.61A7.6,7.6,0,0,0,195.25,102.51Zm8-9.11a6,6,0,0,1,2.64.65,2.06,2.06,0,0,1,1.26,1.59.49.49,0,0,1-.54.52,1,1,0,0,1-.27,0,2.78,2.78,0,0,0-.38,0,11.82,11.82,0,0,0-2.21.48l-.11-.18a12.44,12.44,0,0,0,2-1.15,2.65,2.65,0,0,0-1.13-1.12,5.79,5.79,0,0,0-1.24-.47Z"/><path d="M209.87,98.53a24.39,24.39,0,0,0,4.54-3.94,19.8,19.8,0,0,0,3-4.21c1.8.41,2,.5,2,.68s-.21.24-.73.29l-.06,0a13.65,13.65,0,0,0,3.59,3.4,15.62,15.62,0,0,0,4.59,2.07l0,.16a1.58,1.58,0,0,0-1.17,1.33A13,13,0,0,1,223,96.73a18.6,18.6,0,0,1-3.21-3.06,20.64,20.64,0,0,1-1.38-2A23.36,23.36,0,0,1,214,96.23,17.24,17.24,0,0,1,210,98.71Zm13,1a12.41,12.41,0,0,1,1-1.15,19.21,19.21,0,0,1,1.68,1.33c.07.07.09.11.09.14s-.07.09-.18.09h-6.74v5.58h4.61l1.19-1.35c.78.65,1,.85,1.69,1.48.08.09.09.13.09.16s-.09.13-.18.13H211.72a6.94,6.94,0,0,0-1.22.09l-.09-.69a5,5,0,0,0,1.42.18h5.67V99.9h-5.27a7.27,7.27,0,0,0-1.14.09l-.09-.63a5.34,5.34,0,0,0,1.23.13h5.27V96.91h-2.28a5.76,5.76,0,0,0-.94.09l-.09-.64a4.45,4.45,0,0,0,1.17.14h4l1-1.15c.65.56.85.72,1.48,1.29a.27.27,0,0,1,.09.17c0,.07-.07.1-.18.1h-3v2.58Zm-9.76,1.19c1.63,1.24,2.42,2.18,2.42,2.84a2,2,0,0,1-.25.85c-.17.29-.31.41-.47.41s-.22,0-.6-1.29A9,9,0,0,0,213,100.8Zm6.77,4.23a18,18,0,0,0,1.36-2.6,10.78,10.78,0,0,0,.7-1.74l.79.27c.88.29,1.1.38,1.1.5s-.22.22-.78.31a24.92,24.92,0,0,1-3,3.4Z"/><path d="M236.85,105a8.21,8.21,0,0,0,4.22-2.5,6.43,6.43,0,0,0,1.6-4.34,4.46,4.46,0,0,0-2-4,6,6,0,0,0-3.11-.83,3.72,3.72,0,0,0-.63,0,2.36,2.36,0,0,1,.56,1.49c0,1.41-1,4-2.38,6.23-1.13,1.8-2,2.68-2.68,2.68a1,1,0,0,1-.79-.37,3.45,3.45,0,0,1-.51-1.16,11.13,11.13,0,0,0-.79-1.69,3.44,3.44,0,0,1-.41-1.64,5.62,5.62,0,0,1,1.62-3.56,8.7,8.7,0,0,1,6.19-2.52,6.87,6.87,0,0,1,4.65,1.65,5.52,5.52,0,0,1,1.72,4.23,6.2,6.2,0,0,1-3.58,5.46,10.66,10.66,0,0,1-3.51,1.12Zm-5.92-5.6a4.23,4.23,0,0,0,.72,2.38c.25.32.49.52.68.52.4,0,1.26-1,2.15-2.38,1.33-2.12,2.28-4.44,2.28-5.56a2,2,0,0,0-.25-.9C233.38,94,230.93,96.61,230.93,99.38Z"/><path d="M257,104.71a.25.25,0,0,0,.16.27,9.64,9.64,0,0,0,1.62.07c1.64,0,2.13,0,2.25-.18a21,21,0,0,0,1.1-3.78h.29l-.13,3.08a4.1,4.1,0,0,0,0,.41c0,.2,0,.27.2.35.36.18.47.32.47.57s-.18.38-.47.51a16.82,16.82,0,0,1-2.93.19h-2c-1.39,0-1.78-.27-1.78-1.21V98l-2.49.27c-.16,2.52-.38,3.58-1,4.62a8.06,8.06,0,0,1-3.62,3.06,8.61,8.61,0,0,1-2.12.72l-.09-.23a9.68,9.68,0,0,0,3.4-2.12c1.53-1.44,2.07-3,2.09-5.93-.56.06-1,.09-1.25.13-1.08.11-1.22.12-1.89.16-.14.58-.23.77-.37.77s-.33-.41-.62-2l1.64,0,1.64,0a20.61,20.61,0,0,0,1.6-3.83h-4.3l-1.66.12-.14-.72a13,13,0,0,0,1.8.18h5.47V91.44a6.85,6.85,0,0,0-.09-1.12c1.75.13,2.06.18,2.06.4s-.17.23-.71.45v2h4.67c.47-.61.63-.79,1.11-1.36.87.59,1.12.79,2,1.45a.41.41,0,0,1,.11.18.18.18,0,0,1-.18.15H254.4a47.55,47.55,0,0,1-2.86,3.83c5-.09,5.38-.1,7.35-.27a12.88,12.88,0,0,0-2.47-2.43l.16-.19a19.37,19.37,0,0,1,3.21,2c1.11.84,1.35,1.11,1.35,1.62s-.31,1.18-.58,1.18-.25-.1-.43-.41-.56-.85-.94-1.35c-.25,0-1,.13-2.21.25Z"/><path d="M269.38,96.18c-.31,0-.45,0-1.6.09l-.18-.63c.39,0,.39,0,1.76.12h3.57v-.88a9.36,9.36,0,0,0-.08-1.28c1.95.22,1.95.22,1.95.38s0,.14-.18.23l-.22.13-.16.11c0,.77,0,.77,0,1.31h3.17l.94-1.12c.68.54.9.73,1.58,1.28.06.06.07.09.07.13a.15.15,0,0,1-.16.13H274.2c0,.73,0,1.11-.09,1.92h3.19l1-1.17c.71.58.92.76,1.64,1.39a.13.13,0,0,1,0,.07.16.16,0,0,1-.16.13h-5.71a16.56,16.56,0,0,1-.29,2h4.66a12.86,12.86,0,0,1,1.16-1.27c.75.58,1,.78,1.74,1.43.07.07.11.12.11.16a.1.1,0,0,1-.11.09H274a7.71,7.71,0,0,0,2.78,2.45,12.12,12.12,0,0,0,5.43,1.42v.2a1.68,1.68,0,0,0-1.15,1.4,10.78,10.78,0,0,1-5.19-2.63,10,10,0,0,1-2.21-2.64,6,6,0,0,1-1.93,2.77,12.41,12.41,0,0,1-6.24,2.7l-.08-.23a13.57,13.57,0,0,0,4.83-2.49,6.24,6.24,0,0,0,2.16-2.95h-4.41a7.93,7.93,0,0,0-1.71.13l-.18-.69a18.21,18.21,0,0,0,1.89.15h4.54a10.4,10.4,0,0,0,.3-2h-3.31a14.29,14.29,0,0,0-1.57.09l-.21-.65c.37.05,1.53.14,1.76.14h3.37c.05-.81.07-1.08.09-1.92Zm10-3.59.83-.93c.68.45.88.59,1.56,1,.16.15.27.25.27.34a.18.18,0,0,1-.09.15,3.22,3.22,0,0,1-.47.14c-.41.11-.63.16-.66.18-.7.61-1.05.9-1.8,1.5l-.22-.13a10.39,10.39,0,0,0,.81-1.85H267.85c-.13,1.33-.88,2.73-1.46,2.73-.27,0-.58-.56-.58-1,0-.22.09-.36.42-.6.81-.59,1-1,1.37-2.46h.3a9.17,9.17,0,0,1,0,.93h5.05V91.46c0-.42,0-.67-.06-1.23a16.7,16.7,0,0,1,1.86.26c.18,0,.25.09.25.16s0,.14-.76.52v1.42Z"/><path d="M286.26,104.35c1.19,0,1.28-.18,1.28-1.85V93.73c0-.89-.07-1.32-.27-1.48s-.4-.14-1-.16v-.4l2.88-.14c-.07,1.2-.11,2.64-.11,3.6v7.35c0,1.67.09,1.81,1.3,1.85v.4h-4.07Z"/><path d="M301.6,104.71a14.76,14.76,0,0,1-1.85.18c-.54,0-.69-.29-.76-1.49a4.63,4.63,0,0,1-.88.77,3.56,3.56,0,0,1-2.34.77,2.77,2.77,0,0,1-1.84-.55,2.6,2.6,0,0,1-.79-1.91c0-1.42.9-2.34,2.64-2.74a19.4,19.4,0,0,1,3.21-.43V98.17a3.6,3.6,0,0,0-.25-1.63,1.51,1.51,0,0,0-1.48-.71c-1.19,0-1.8.54-1.87,1.66,0,.38-.06.5-.2.61a1.17,1.17,0,0,1-.63.15c-.61,0-.88-.17-.88-.54A2.14,2.14,0,0,1,294.9,96a5.42,5.42,0,0,1,2.63-.58,2.43,2.43,0,0,1,2.94,2.83s0,0,0,1.82l0,1.71,0,.83a4,4,0,0,0,.2,1.54c.11.15.33.2,1,.2Zm-2.61-5a8,8,0,0,0-3,.65,2.12,2.12,0,0,0-1.2,2c0,1.14.61,1.91,1.51,1.91a2.76,2.76,0,0,0,2.3-1.31,5,5,0,0,0,.42-2.45Z"/><path d="M305.72,104.78h-.49a32,32,0,0,0,.06-3.22V93.73c0-1.53-.07-1.62-1.32-1.64v-.4l2.9-.14c-.07,1.2-.11,2.66-.11,3.6v2a3.15,3.15,0,0,1,2.92-1.77c2.34,0,3.84,1.8,3.84,4.63,0,3.06-1.55,5-4.06,5a4,4,0,0,1-3-1.33Zm1.53-1.44a2.3,2.3,0,0,0,2.09,1.24c1.66,0,2.5-1.47,2.5-4.34s-.81-4.35-2.39-4.35-2.76,1.65-2.76,4.48A6.27,6.27,0,0,0,307.25,103.34Z"/><path d="M224.63,22.05c0,.21-.17.33-.52.37s-.56-.06-.63-.27q-.31-5.56-3.36-8.66a10.86,10.86,0,0,0-8.09-3.1h-6.4a20.34,20.34,0,0,0-5.36.53,3.74,3.74,0,0,0-2.46,1.89,9.1,9.1,0,0,0-.69,4v23h10.61c3.71,0,6.35-.57,7.93-1.73S218,35,218,32.44q0-.21.63-.21t.63.21L219.17,41c0,2,0,3.57.11,4.62l.1,5q0,.21-.63.21t-.63-.21q0-4.62-2.46-6.62t-8.25-2H197.12V64.89a10,10,0,0,0,.9,4.88,5.19,5.19,0,0,0,3.51,2.15,39.16,39.16,0,0,0,8.3.63c.21,0,.31.21.31.63s-.1.63-.31.63q-4.31,0-6.72-.1l-9.45-.11-7.14.11c-1.26.07-3.05.1-5.36.1q-.21,0-.21-.63t.21-.63A24,24,0,0,0,187,72a3.73,3.73,0,0,0,2.58-2,12.12,12.12,0,0,0,.68-4.67V16.69a11.74,11.74,0,0,0-.68-4.62,3.88,3.88,0,0,0-2.52-2,21,21,0,0,0-5.83-.58q-.21,0-.21-.63t.21-.63h42.21a.83.83,0,0,1,.94.94Z"/></g></g></svg>